<svg xmlns="http://www.w3.org/2000/svg" width="24" height="24" viewBox="0 0 24 24">
    <g fill="none" fill-rule="evenodd">
        <g>
            <g>
                <g>
                    <path d="M0 0H24V24H0z" transform="translate(-340 -10830) translate(316 10806) translate(24 24)"/>
                    <path fill="#4E4E4E" fill-rule="nonzero" d="M4 19c1.46-.187 2.697-.725 3.708-1.612 1.012-.887 1.81-1.955 2.397-3.205.587-1.249.88-2.58.88-3.992 0-1.611-.374-2.88-1.122-3.804C9.115 5.462 8.226 5 7.196 5c-.802 0-1.502.303-2.1.909-.6.606-.898 1.352-.898 2.24 0 .762.269 1.48.808 2.155.538.675 1.376 1.012 2.514 1.012-.072 1.174-.228 2.065-.467 2.67-.24.607-.59 1.134-1.05 1.584-.462.45-1.13.8-2.003 1.05V19zm8.997 0c1.46-.187 2.696-.725 3.708-1.612 1.011-.887 1.814-1.955 2.406-3.205.593-1.249.889-2.58.889-3.992 0-1.611-.374-2.88-1.122-3.804C18.129 5.462 17.228 5 16.175 5c-.79 0-1.484.303-2.083.909-.599.606-.898 1.352-.898 2.24 0 .762.273 1.48.817 2.155.545.675 1.386 1.012 2.523 1.012-.072 1.174-.227 2.065-.467 2.67-.24.607-.592 1.134-1.06 1.584-.466.45-1.136.8-2.01 1.05V19z" transform="translate(-340 -10830) translate(316 10806) translate(24 24)"/>
                </g>
            </g>
        </g>
    </g>
</svg>
