<svg xmlns="http://www.w3.org/2000/svg" width="32" height="33" viewBox="0 0 32 33">
    <g fill="none" fill-rule="evenodd">
        <g>
            <g>
                <path fill="#FFF" fill-opacity="0" d="M0 0H32V32H0z" transform="translate(-278 -3036) translate(278 3037)"/>
                <g>
                    <g>
                        <path fill="#D5F3E8" fill-rule="nonzero" d="M11.59 7.99c0 1.92-.85 3.64-2.2 4.8-.89.48-1.91.75-2.99.75-3.52 0-6.37-2.85-6.37-6.37 0-1.93.86-3.66 2.22-4.81.89-.48 1.91-.74 2.98-.74 3.51 0 6.36 2.85 6.36 6.37z" transform="translate(-278 -3036) translate(278 3037) translate(18 8)"/>
                        <g stroke="#1D1D1B" stroke-linecap="round" stroke-linejoin="round" stroke-width="1.4">
                            <path d="M1.65 1.92c-.77 0-1.39.47-1.39 1.05 0 .63.67.88 1.18 1.01.56.15 1.41.22 1.58.89.01.03.01.06.02.09.11.74-.76 1.15-1.38 1.15M2.85 2.05L1.65 1.92 1.65.98M1.65 7.05L1.65 6.11M.3 5.96L1.65 6.11" transform="translate(-278 -3036) translate(278 3037) translate(18 8) translate(5 3)"/>
                        </g>
                        <path stroke="#1D1D1B" stroke-linecap="round" stroke-linejoin="round" stroke-width="1.4" d="M12.85 6.82c0 2.44-1.37 4.55-3.37 5.62-.89.48-1.91.75-2.99.75-3.52 0-6.37-2.85-6.37-6.37 0-1.93.86-3.66 2.22-4.81C3.46 1.05 4.91.46 6.5.46c3.5 0 6.35 2.84 6.35 6.36z" transform="translate(-278 -3036) translate(278 3037) translate(18 8)"/>
                    </g>
                    <g>
                        <path fill="#D5F3E8" fill-rule="nonzero" d="M10.87 7.62c0 1.69-.75 3.21-1.94 4.23-.79.42-1.68.66-2.64.66C3.19 12.51.67 10 .67 6.9c0-1.7.76-3.22 1.95-4.25C3.41 2.23 4.31 2 5.25 2c3.1 0 5.62 2.52 5.62 5.62z" transform="translate(-278 -3036) translate(278 3037) translate(6)"/>
                        <g stroke="#1D1D1B" stroke-linecap="round" stroke-linejoin="round" stroke-width="1.4">
                            <path d="M1.67 1.63c-.68 0-1.23.41-1.23.92 0 .55.59.77 1.04.89.49.13 1.24.19 1.39.79.01.03.01.05.02.08.09.66-.67 1.02-1.22 1.02M2.73 1.75L1.67 1.63 1.67.81M1.67 6.16L1.67 5.33M.48 5.2L1.67 5.33" transform="translate(-278 -3036) translate(278 3037) translate(6) translate(5 3)"/>
                        </g>
                        <path stroke="#1D1D1B" stroke-linecap="round" stroke-linejoin="round" stroke-width="1.4" d="M12.14 6.31c0 2.15-1.21 4.01-2.98 4.95-.79.42-1.68.66-2.64.66C3.42 11.92.9 9.41.9 6.31c0-1.7.76-3.22 1.95-4.25C3.83 1.21 5.12.69 6.52.69c3.11.01 5.62 2.52 5.62 5.62z" transform="translate(-278 -3036) translate(278 3037) translate(6)"/>
                    </g>
                    <g>
                        <g fill="#D5F3E8" fill-rule="nonzero">
                            <path d="M.72.52H5.9399999999999995V11.209999999999999H.72zM6.42 8.46h2.83l7.45 1.37c1.5.28 3.05.15 4.48-.37l9.19-3.33c1.4-.51 1.04-.85-.45-.85H16.1h3.28c.92 0 1.66-.74 1.66-1.66V3c0-.57-.46-1.03-1.03-1.03h-7.73c-.4 0-.79.08-1.16.23l-1.59.67H6.42" transform="translate(-278 -3036) translate(278 3037) translate(0 18) translate(0 2)"/>
                        </g>
                        <g stroke="#1D1D1B" stroke-linecap="round" stroke-linejoin="round" stroke-width="1.4">
                            <path d="M.72.89H5.9399999999999995V13.200000000000001H.72zM6.42 10.46h2.83l7.45 1.37c1.5.28 3.05.15 4.48-.37l9.19-3.33c1.4-.51 1.04-2.58-.45-2.58H16.1h3.28c.92 0 1.66-.74 1.66-1.66v-.62c0-.57-.46-1.03-1.03-1.03h-7.73c-.4 0-.79.08-1.16.23l-1.59.67H6.42" transform="translate(-278 -3036) translate(278 3037) translate(0 18)"/>
                        </g>
                    </g>
                </g>
            </g>
        </g>
    </g>
</svg>
