<svg xmlns="http://www.w3.org/2000/svg" width="32" height="32" viewBox="0 0 32 32">
    <g fill="none" fill-rule="evenodd">
        <g>
            <g>
                <path fill="#FFF" fill-opacity="0" d="M0 0H32V32H0z" transform="translate(-278 -3269) translate(278 3269)"/>
                <g>
                    <path fill="#F6C4C6" fill-rule="nonzero" d="M19.62 20.25c.41-.41 1.1-.62 1.69-.9.41-.19.79-.42.99-.77.49-.85-1.56-.94-1.29-1.9.25-.94 1.47-1.78 1.47-2.79 0-1.02-1.23-1.85-1.47-2.79-.26-.97.37-2.31-.12-3.16-.5-.86-1.98-.98-2.67-1.67-.7-.7-.82-2.18-1.68-2.68-.85-.49-2.19.14-3.16-.11C12.45 3.23 11.6 2 10.59 2 9.57 2 8.74 3.23 7.8 3.48c-.97.26-.9-1.63-1.75-1.14-.49.27-.74.88-.99 1.47-.19.45-.39.9-.68 1.19-.14.14-.31.26-.49.36-.75.41-1.79.63-2.19 1.32-.13.24-.18.5-.19.79-.02.77.26 1.67.07 2.37-.25.94-1.47 1.78-1.47 2.79 0 1.02 1.23 1.85 1.47 2.79.26.96-.37 2.31.12 3.15.5.87 1.98.98 2.68 1.68.69.69.81 2.18 1.67 2.68.2.11.42.16.67.18l-2.97 6.6L7.3 28l1.19 1.84.94 1.44L10.74 24c.4.29.82.53 1.26.53.24 0 .46-.07.68-.17.03-.01.05-.03.07-.03.7-.37 1.34-1.09 2.04-1.28.16-.04.33-.06.51-.06l1.32 7.34.17.95 1.39-2.14.75-1.14 1.34.64 2.21 1.07-3.6-7.99-.08.03c.04-.09.08-.19.12-.28.2-.46.4-.92.7-1.22z" transform="translate(-278 -3269) translate(278 3269) translate(4)"/>
                    <g stroke="#1D1D1B" stroke-linecap="round" stroke-linejoin="round" stroke-width="1.4" transform="translate(-278 -3269) translate(278 3269) translate(4)">
                        <path d="M22.3 18.57c-.2.35-.58.58-.99.77-.59.28-1.28.49-1.69.9-.3.3-.5.76-.69 1.22-.25.59-.5 1.18-.98 1.46-.06.03-.12.07-.19.09-.85.31-2.07-.22-2.97.03-.69.18-1.34.91-2.04 1.28-.02.01-.05.02-.07.03-.22.1-.44.17-.68.17-1.02 0-1.86-1.23-2.79-1.48-.97-.26-2.31.37-3.16-.11-.86-.5-.98-1.99-1.67-2.68-.7-.7-2.18-.81-2.68-1.68-.49-.85.14-2.19-.12-3.15-.25-.94-1.47-1.78-1.47-2.79 0-1.02 1.23-1.85 1.47-2.79.19-.7-.09-1.6-.07-2.37.01-.29.06-.56.19-.8.4-.69 1.44-.9 2.19-1.32.18-.1.35-.21.49-.35.29-.3.49-.75.68-1.19.25-.6.5-1.21.99-1.49.85-.49 2.19.14 3.16-.11.94-.25 1.78-1.48 2.79-1.48s1.85 1.23 2.79 1.48c.97.26 2.31-.38 3.16.11.86.5.98 1.98 1.68 2.68.69.69 2.18.81 2.67 1.67.49.85-.14 2.19.12 3.16.25.94 1.47 1.78 1.47 2.79 0 1.02-1.23 1.86-1.47 2.79-.26.97.37 2.31-.12 3.16z"/>
                        <circle cx="12" cy="12.62" r="7.04"/>
                        <g>
                            <path d="M15.88.72L19.48 8.71 17.27 7.64 15.93 6.99 15.19 8.13 13.8 10.27 13.63 9.32 12.3 1.97M7.74 2.99L6.43 10.27 5.49 8.83 4.3 6.99.74 8.71 3.72 2.11" transform="translate(3 21)"/>
                        </g>
                        <g>
                            <path d="M2 1.86C.99 1.86.17 2.48.17 3.24c0 .83.88 1.16 1.55 1.34.74.2 1.85.29 2.08 1.18.01.04.02.08.02.11.14.98-1 1.52-1.82 1.52M3.58 2.04L2 1.86 2 .63M2 8.62L2 7.39M.23 7.19L2 7.39" transform="translate(10 8)"/>
                        </g>
                    </g>
                </g>
            </g>
        </g>
    </g>
</svg>
