<svg xmlns="http://www.w3.org/2000/svg" width="37" height="26" viewBox="0 0 37 26">
    <g fill="none" fill-rule="evenodd">
        <g fill="#DAE5FF" fill-rule="nonzero">
            <g>
                <g>
                    <path d="M6.84 16.983c-.807 2.04-2.077 4.054-3.775 5.995-.537.614-.61 1.499-.17 2.187.341.54.903.835 1.514.835.17 0 .342-.012.513-.074 3.59-1.056 11.98-4.803 12.213-16.817C17.22 4.48 13.849.5 9.465.044c-2.43-.246-4.848.552-6.644 2.174C1.026 3.852 0 6.186 0 8.618c0 4.054 2.858 7.604 6.84 8.365zM28.954.044c-2.419-.246-4.837.552-6.632 2.174-1.796 1.634-2.822 3.968-2.822 6.4 0 4.054 2.858 7.604 6.84 8.366-.806 2.039-2.076 4.053-3.774 5.994-.538.614-.611 1.499-.171 2.187.342.54.904.835 1.514.835.171 0 .342-.012.513-.074 3.591-1.056 11.982-4.803 12.214-16.817v-.172c0-4.557-3.334-8.439-7.682-8.893z" transform="translate(-48.000000, -442.000000) translate(48.000000, 442.000000) translate(18.318182, 13.000000) scale(-1, -1) translate(-18.318182, -13.000000) translate(-0.000000, 0.000000)"/>
                </g>
            </g>
        </g>
    </g>
</svg>
