<svg width="16" height="16" viewBox="0 0 16 16" fill="none" xmlns="http://www.w3.org/2000/svg">
<path d="M15.9579 6.12335C15.8525 5.79938 15.5652 5.57001 15.2266 5.53937L10.6079 5.12006L8.7826 0.846619C8.64784 0.532654 8.3412 0.330017 7.99989 0.330017C7.65858 0.330017 7.35182 0.532654 7.21791 0.846619L5.39259 5.12006L0.773203 5.53937C0.43458 5.57062 0.147837 5.79999 0.0418798 6.12335C-0.0634669 6.44733 0.0338231 6.80267 0.289927 7.02728L3.78126 10.0887L2.75184 14.6226C2.67652 14.956 2.80592 15.3007 3.08253 15.5007C3.23121 15.6087 3.40589 15.6627 3.58119 15.6627C3.73182 15.6627 3.88258 15.6226 4.01722 15.5421L7.99989 13.1607L11.9818 15.5421C12.2739 15.7166 12.6412 15.7006 12.9172 15.5007C13.1939 15.3007 13.3233 14.956 13.2479 14.6226L12.2185 10.0887L15.7098 7.02728C15.9658 6.80267 16.0632 6.44806 15.9579 6.12335Z" fill="#97E0C7"></path>
</svg>