<svg xmlns="http://www.w3.org/2000/svg" width="32" height="32"><g transform="translate(3)" fill="none" fill-rule="evenodd"><path fill="#FFF" fill-rule="nonzero" d="M23.5 6.91a.94.94 0 01.79.93v6.92a19.842 19.842 0 01-3.68 11.44L13 31.3l-6.06-4.39A17.479 17.479 0 01.55 11.5V5.8c.09-.09.78-.3.94-.4.172-.027.342-.064.51-.11a4.49 4.49 0 002.17-1.22 4.477 4.477 0 001.11-1.76h13.35a1.12 1.12 0 011.09.92 4.67 4.67 0 003.78 3.68z"></path><path stroke="#1D1D1B" stroke-linecap="round" stroke-linejoin="round" stroke-width="1.4" d="M25.89 5.52v8A17.88 17.88 0 0119 27.62l-.3.24-3.58 2.79a3 3 0 01-3.7 0l-4.16-3.11A17.76 17.76 0 01.11 13.33V5.52c.206.015.414.015.62 0 .186-.021.37-.058.55-.11A4.733 4.733 0 003.5 4.12 4.78 4.78 0 004.64 2.3v-.09A2.14 2.14 0 016.69.7h12.58a2.099 2.099 0 012 1.42c.14.456.348.888.62 1.28a4.8 4.8 0 004 2.12zM7.74 8.04v4.43m0 4.93v4.43m4.5-4.43v4.43"></path><rect width="3.32" height="5.25" x="11.47" y="7.57" stroke="#1D1D1B" stroke-linecap="round" stroke-linejoin="round" stroke-width="1.4" rx="1.61"></rect><rect width="3.32" height="5.25" x="16.66" y="16.99" stroke="#1D1D1B" stroke-linecap="round" stroke-linejoin="round" stroke-width="1.4" rx="1.61"></rect><path stroke="#1D1D1B" stroke-linecap="round" stroke-linejoin="round" stroke-width="1.4" d="M19.23 8.04v4.43"></path></g></svg>