<svg xmlns="http://www.w3.org/2000/svg" width="32" height="32"><g fill="none" fill-rule="evenodd"><path fill="#FFF" fill-rule="nonzero" d="M29.69 18.28V28c.003.377-.068.75-.21 1.1-.21.064-.43.098-.65.1H23.6a2.66 2.66 0 01-2.47-2.8v-3.48H15a2.868 2.868 0 00.47 1.6 9.44 9.44 0 012.18 1.91c.41.6 0 1.19 0 1.29H8.49v-1c.385-.307.675-.716.84-1.18a2.68 2.68 0 001.79-2.64H3.18a2.46 2.46 0 01-2.47-2.44V6.14c0-.255.04-.508.12-.75.24-.073.49-.11.74-.11h20.54c2.24 0 2.42.75 2.46 2.46v6.14a1.6 1.6 0 001.6 1.59h1c2.06-.07 2.46.86 2.52 2.81z"></path><path stroke="#1D1D1B" stroke-linecap="round" stroke-linejoin="round" stroke-width="1.4" d="M31.3 16.68v9.69a2.76 2.76 0 01-1.82 2.69h0c-.21.064-.43.098-.65.1H23.6a2.66 2.66 0 01-2.47-2.8v-9.68a2.65 2.65 0 012.47-2.8h5.23a2.64 2.64 0 012.47 2.8z"></path><path stroke="#1D1D1B" stroke-linecap="round" stroke-linejoin="round" stroke-width="1.4" d="M21.13 22.92H3.18a2.458 2.458 0 01-2.47-2.46V6.14c0-.255.04-.508.12-.75a2.45 2.45 0 012.35-1.71h20.54a2.46 2.46 0 012.46 2.46v7.74"></path><path stroke="#1D1D1B" stroke-linecap="round" stroke-linejoin="round" stroke-width="1.4" d="M17.64 26.43v1.29H8.49v-1.29a.848.848 0 01.66-.81c.061-.015.122-.036.18-.06a2.68 2.68 0 001.79-2.64H15a2.868 2.868 0 00.47 1.6c.349.55.897.945 1.53 1.1a.85.85 0 01.64.81h0z"></path></g></svg>