<svg xmlns="http://www.w3.org/2000/svg" width="32" height="32"><g fill="none" fill-rule="evenodd"><path fill="#FFF" fill-rule="nonzero" d="M24.212 27.872l-1.695-.615 2.503-6.9 1.695.615a2.395 2.395 0 011.436 3.069l-.866 2.387a2.398 2.398 0 01-3.073 1.444zM16.222 3.588h-1.425a2.134 2.134 0 01-2.133-2.134V.688h5.692v.756a2.133 2.133 0 01-2.134 2.144z"></path><path fill="#FFF" fill-rule="nonzero" d="M23.864 16.892L5.614 10.27a2.667 2.667 0 00-.97-.155c-.225.251-.4.545-.513.863L.815 20.005a2.773 2.773 0 001.658 3.549l18.25 6.623c.325.12.67.177 1.018.165.226-.255.4-.551.514-.873l3.277-9.018a2.775 2.775 0 00-1.668-3.559zm-2.143 4.645a1.794 1.794 0 111.794-1.794 1.78 1.78 0 01-1.794 1.794z"></path><path stroke="#1D1D1B" stroke-linecap="round" stroke-linejoin="round" stroke-width="1.4" d="M25.406.679H5.77M27.559 19.49l-3.317 9.029a2.773 2.773 0 01-2.54 1.823 2.655 2.655 0 01-1.018-.165L2.473 23.554a2.773 2.773 0 01-1.658-3.55l3.267-9.027c.114-.318.288-.612.514-.863a2.764 2.764 0 013.045-.805l18.25 6.623a2.775 2.775 0 011.668 3.559zm-1.196 8.58l-1.696-.615 2.504-6.9 1.695.615a2.395 2.395 0 011.435 3.068l-.87 2.398a2.394 2.394 0 01-3.068 1.434h0zM16.223 3.588h-1.425a2.133 2.133 0 01-2.134-2.133V.688h5.692v.757a2.131 2.131 0 01-2.133 2.143h0zm-.65.446v7.942"></path><circle cx="21.721" cy="19.753" r="1.794" stroke="#1D1D1B" stroke-linecap="round" stroke-linejoin="round" stroke-width="1.4"></circle></g></svg>