<svg xmlns="http://www.w3.org/2000/svg" width="32" height="32"><g fill="none" fill-rule="evenodd"><path fill="#FFF" fill-rule="nonzero" d="M20.84 26.45c-.027.115-.06.228-.1.34a6.994 6.994 0 01-3.41 4.09h-.66a6.94 6.94 0 01-6.33-4.12 3.094 3.094 0 01-.13-.34l10.63.03z"></path><path fill="#FFF" fill-rule="nonzero" d="M20.23 26.83c-.026.116-.063.23-.11.34H9.72a2.001 2.001 0 01-.13-.34h10.64zm9.7-2.42c.004.483-.135.956-.4 1.36a2.892 2.892 0 01-.5.05c-7.69.07-15.39 0-23.09 0H3.65a2.54 2.54 0 01-2.54-2.54 2.507 2.507 0 01.54-1.55 4.632 4.632 0 001-.79 4.479 4.479 0 002-1.64A15.506 15.506 0 006 14.77c.4-2.66.39-3.27.86-5.91a8.721 8.721 0 012.88-5l.12-.07a11.485 11.485 0 019.66 0A8.81 8.81 0 0124.17 10c.47 2.64.46 3.25.86 5.91.21 1.569.658 3.097 1.33 4.53a4.658 4.658 0 002.1 1.69c.889.413 1.46 1.3 1.47 2.28z"></path><path stroke="#1D1D1B" stroke-linecap="round" stroke-linejoin="round" stroke-width="1.4" d="M22.8 26.07a7 7 0 01-6.09 5.19h0-.65a6.94 6.94 0 01-6.33-4.12h0a2.001 2.001 0 01-.13-.34 5.198 5.198 0 01-.25-.76"></path><path stroke="#1D1D1B" stroke-linecap="round" stroke-linejoin="round" stroke-width="1.4" d="M31.3 23.47a2.54 2.54 0 01-2.55 2.58c-7.68.07-15.38 0-23.08 0H3.38a2.54 2.54 0 01-2.54-2.58 2.46 2.46 0 01.54-1.55c.252-.312.57-.565.93-.74l.1-.05a4.467 4.467 0 002-1.64A15.522 15.522 0 005.74 15c.4-2.66.39-3.27.85-5.91A8.741 8.741 0 019.48 4a8.523 8.523 0 011.76-1.19 11.39 11.39 0 019.65 0 8.78 8.78 0 014.65 6.21c.46 2.67.46 3.28.86 5.98.21 1.568.656 3.095 1.32 4.53a4.517 4.517 0 002.11 1.69 2.572 2.572 0 011.47 2.25z"></path></g></svg>