<svg xmlns="http://www.w3.org/2000/svg" width="32" height="32"><g transform="translate(0 3)" fill="none" fill-rule="evenodd"><path fill="#FFF" fill-rule="nonzero" d="M28.68 2H.79v20.87a2.84 2.84 0 002.89 2.78h24.65c.359.004.715-.06 1.05-.19a2.56 2.56 0 00.17-.92V2.88a.863.863 0 00-.87-.88zm-8.39 18.61a7.12 7.12 0 01-10-10 7.11 7.11 0 0110 10z"></path><path stroke="#1D1D1B" stroke-linecap="round" stroke-linejoin="round" stroke-width="1.4" d="M31.22.35v22.52a2.77 2.77 0 01-1.72 2.54l-.12.05c-.335.13-.691.194-1.05.19H3.68a2.84 2.84 0 01-2.89-2.78V.35h30.43zM1.05 4.65h30.16"></path><circle cx="2.97" cy="2.52" r="1" stroke="#1D1D1B" stroke-linecap="round" stroke-linejoin="round" stroke-width="1.4"></circle><circle cx="5.06" cy="2.52" r="1" stroke="#1D1D1B" stroke-linecap="round" stroke-linejoin="round" stroke-width="1.4"></circle><circle cx="7.15" cy="2.52" r="1" stroke="#1D1D1B" stroke-linecap="round" stroke-linejoin="round" stroke-width="1.4"></circle><circle cx="16.13" cy="15.01" r="7.11" stroke="#1D1D1B" stroke-linecap="round" stroke-linejoin="round" stroke-width="1.4"></circle><ellipse cx="16.14" cy="15.01" stroke="#1D1D1B" stroke-linecap="round" stroke-linejoin="round" stroke-width="1.4" rx="3.88" ry="7.11"></ellipse><path stroke="#1D1D1B" stroke-linecap="round" stroke-linejoin="round" stroke-width="1.4" d="M9.02 15.01h14.22"></path></g></svg>
