<svg xmlns="http://www.w3.org/2000/svg" viewBox="0 0 31.27 30.02" height="32" width="32"><defs>
<style>.no-access_inline_svg__cls-1{fill:#fff}.no-access_inline_svg__cls-2{fill:none;stroke:#1d1d1b;stroke-linecap:round;stroke-linejoin:round;stroke-width:1.4px}</style>
</defs><g id="no-access_inline_svg__Warstwa_2" data-name="Warstwa 2"><g id="no-access_inline_svg__IKONA"><path class="no-access_inline_svg__cls-1" d="M15.78 8.13a6.2 6.2 0 01-1.23 3.72 6.2 6.2 0 01-3.4 1 6.29 6.29 0 01-5.05-10 6.29 6.29 0 019.68 5.29zM29 22.75v4.05a2 2 0 01-2 2h-8.69l-.11-5H1.05c0-2.15.55-5.25 1.69-6.9a10.19 10.19 0 016.72-2.52 10.38 10.38 0 017.94 3.4c1.5 1.57 1.66 3.39 2.19 3.13h8.08c.7 0 1.33.66 1.33 1.84z"></path><circle class="no-access_inline_svg__cls-2" cx="10.72" cy="6.98" r="6.28"></circle><path class="no-access_inline_svg__cls-2" d="M18.2 23.45H2.41a1.71 1.71 0 01-1.67-2.08 10.06 10.06 0 011.6-3.72 10.18 10.18 0 018.39-4.39 11.39 11.39 0 018.31 4M29.54 20.46v-2.93a5.15 5.15 0 00-10.3 0v2.93h2.53v-2.93a2.62 2.62 0 115.24 0v2.93"></path><path class="no-access_inline_svg__cls-2" d="M18.2 20.45v6.85a2 2 0 002 2h8.32a2 2 0 002-2v-6.85zM24.39 23.51v2.75"></path></g></g></svg>