<svg xmlns:xlink="http://www.w3.org/1999/xlink" width="32" height="32" viewBox="0 0 32 32" fill="none" xmlns="http://www.w3.org/2000/svg"><g clip-path="url(#clip0_1827_65677)" fill="none"><path d="M24.1799 2.1501H5.84994C5.30499 2.14883 4.76614 2.26479 4.26994 2.4901C4.05458 2.9645 3.94211 3.47912 3.93994 4.0001V27.1901C3.93994 27.697 4.03978 28.1989 4.23377 28.6673C4.42775 29.1356 4.71207 29.5611 5.07051 29.9195C5.42894 30.278 5.85447 30.5623 6.32278 30.7563C6.7911 30.9503 7.29304 31.0501 7.79994 31.0501H25.5799C26.1282 31.0525 26.6706 30.9365 27.1699 30.7101C27.3874 30.2223 27.4998 29.6942 27.4999 29.1601V5.4701C27.551 5.02174 27.5002 4.56763 27.3514 4.14161C27.2026 3.71559 26.9596 3.32863 26.6405 3.00954C26.3214 2.69045 25.9345 2.44746 25.5084 2.29865C25.0824 2.14985 24.6283 2.09907 24.1799 2.1501ZM12.8899 25.0001H6.99994V19.1001H12.8899V25.0001Z" fill="#F6C4C6"></path><path d="M16.3401 21.9702H24.1301" stroke="#1D1D1B" stroke-width="1.4px" stroke-linecap="round" stroke-linejoin="round" fill="none"></path><path d="M29.09 20.0002V27.5002C29.0912 28.2395 28.8785 28.9633 28.4775 29.5844C28.0765 30.2054 27.5043 30.6972 26.83 31.0002C26.3373 31.2256 25.8017 31.3416 25.26 31.3402H7.42997C6.924 31.3389 6.42328 31.2376 5.95658 31.0422C5.48988 30.8467 5.06641 30.561 4.71049 30.2014C4.35458 29.8417 4.07325 29.4153 3.88267 28.9466C3.69209 28.4779 3.59602 27.9762 3.59997 27.4702V4.5302C3.59768 4.00335 3.70673 3.48197 3.91997 3.0002C4.21669 2.31608 4.70714 1.73376 5.33086 1.32506C5.95458 0.916355 6.68428 0.699139 7.42997 0.700199H25.26C26.2749 0.702839 27.2476 1.1072 27.9653 1.8249C28.683 2.54259 29.0873 3.51523 29.09 4.5302V20.0002Z" stroke="#1D1D1B" stroke-width="1.4px" stroke-linecap="round" stroke-linejoin="round" fill="none"></path><path d="M12.9 19.1299H7V25.0299H12.9V19.1299Z" stroke="#1D1D1B" stroke-width="1.4px" stroke-linecap="round" stroke-linejoin="round" fill="none"></path><path d="M16.3401 11.25H24.1301" stroke="#1D1D1B" stroke-width="1.4px" stroke-linecap="round" stroke-linejoin="round" fill="none"></path><path d="M8.75 11.5901L9.92 12.8301L13.8 8.62012" stroke="#1D1D1B" stroke-width="1.4px" stroke-linecap="round" stroke-linejoin="round" fill="none"></path></g><defs><clipPath id="clip0_1827_65677"><rect width="32" height="32" fill="white"></rect></clipPath></defs></svg>