<svg xmlns:xlink="http://www.w3.org/1999/xlink" width="32" height="32" viewBox="0 0 32 32" fill="none" xmlns="http://www.w3.org/2000/svg"><g clip-path="url(#clip0_1827_65663)" fill="none"><path d="M24.62 4.31992V31.3199H4.99996C4.46964 31.3607 3.93651 31.2953 3.43177 31.1275C2.92703 30.9597 2.46082 30.693 2.06042 30.3429C1.66001 29.9927 1.33346 29.5663 1.09986 29.0884C0.866262 28.6106 0.73031 28.0909 0.699961 27.5599V4.72992C0.698522 4.07082 0.859974 3.42158 1.16996 2.83992C1.77957 2.4944 2.46926 2.31508 3.16996 2.31992H22.62C23.1504 2.31992 23.6591 2.53063 24.0342 2.90571C24.4092 3.28078 24.62 3.78949 24.62 4.31992Z" fill="#D5F3E8"></path><path d="M26.19 23.8302H4.99995C3.9016 23.8221 2.8369 24.2089 1.99995 24.9202C1.60511 25.2399 1.28438 25.6416 1.05993 26.0974C0.83548 26.5532 0.712659 27.0523 0.699951 27.5602C0.73285 28.0895 0.870669 28.607 1.10539 29.0825C1.34011 29.558 1.66705 29.9822 2.06718 30.3302C2.46732 30.6782 2.93267 30.9432 3.43615 31.1097C3.93964 31.2762 4.47121 31.341 4.99995 31.3002H26.19" stroke="#1D1D1B" stroke-width="1.4px" stroke-linecap="round" stroke-linejoin="round" fill="none"></path><path d="M10.05 31.2998C9.52533 31.3338 8.99907 31.2639 8.50138 31.0942C8.0037 30.9245 7.54435 30.6584 7.14961 30.311C6.75488 29.9637 6.4325 29.5419 6.20093 29.0698C5.96936 28.5977 5.83313 28.0846 5.80005 27.5598V27.5598C5.83313 27.0351 5.96936 26.522 6.20093 26.0499C6.4325 25.5778 6.75488 25.156 7.14961 24.8087C7.54435 24.4613 8.0037 24.1952 8.50138 24.0255C8.99907 23.8558 9.52533 23.7859 10.05 23.8198" stroke="#1D1D1B" stroke-width="1.4px" stroke-linecap="round" stroke-linejoin="round" fill="none"></path><path d="M26.19 23.83V2.70996C26.19 2.17953 25.9793 1.67082 25.6042 1.29575C25.2291 0.920675 24.7204 0.709961 24.19 0.709961H4.71997C3.6591 0.709961 2.64169 1.13139 1.89154 1.88153C1.1414 2.63168 0.719971 3.64909 0.719971 4.70996V27.56" stroke="#1D1D1B" stroke-width="1.4px" stroke-linecap="round" stroke-linejoin="round" fill="none"></path><path d="M7.51001 0.700195V23.6502" stroke="#1D1D1B" stroke-width="1.4px" stroke-linecap="round" stroke-linejoin="round" fill="none"></path><path d="M26.2 23.8198C26.2 23.8198 22.77 27.5598 26.2 31.2998" stroke="#1D1D1B" stroke-width="1.4px" stroke-linecap="round" stroke-linejoin="round" fill="none"></path></g><defs><clipPath id="clip0_1827_65663"><rect width="32" height="32" fill="white"></rect></clipPath></defs></svg>