<svg xmlns:xlink="http://www.w3.org/1999/xlink" width="32" height="32" viewBox="0 0 32 32" fill="none" xmlns="http://www.w3.org/2000/svg"><g clip-path="url(#clip0_1827_65649)" fill="none"><path d="M15.9999 23.9102C15.9977 23.9992 16.0214 24.0869 16.068 24.1627C16.1147 24.2385 16.1824 24.2992 16.2628 24.3373C16.3433 24.3754 16.4331 24.3893 16.5213 24.3774C16.6096 24.3655 16.6924 24.3282 16.7599 24.2702" fill="#E0F1FA"></path><path d="M29.7599 9.67999V26.21C29.7602 26.3752 29.7401 26.5398 29.6999 26.7C29.2677 26.8875 28.8011 26.9829 28.3299 26.98H20.5599C19.2998 26.916 18.0484 27.2219 16.9599 27.86C16.7299 27.9736 16.5259 28.1334 16.3607 28.3296C16.1955 28.5258 16.0727 28.7541 15.9999 29C15.9099 28.38 15.4299 28.16 14.9999 27.9C13.926 27.2603 12.6888 26.9476 11.4399 27H3.65991C2.93624 27.0698 2.21437 26.8502 1.65218 26.3892C1.08999 25.9282 0.733223 25.2633 0.659912 24.54V7.99999C0.660418 7.83815 0.680565 7.67697 0.719912 7.51999C1.50616 6.97004 2.22744 6.33263 2.86991 5.61999C3.16067 5.25563 3.55444 4.9873 3.99991 4.84999C4.24179 4.76976 4.49507 4.72923 4.74991 4.72999H12.7499C13.1981 4.72999 13.628 4.90804 13.9449 5.22498C14.2619 5.54192 14.4399 5.97178 14.4399 6.41999C14.4388 5.99446 14.5993 5.58437 14.8888 5.27254C15.1784 4.96071 15.5755 4.77038 15.9999 4.73999H24.1899C24.8525 4.76426 25.4833 5.02967 25.964 5.48636C26.4446 5.94304 26.7419 6.55954 26.7999 7.21999C27.2312 7.22053 27.6586 7.30193 28.0599 7.45999C28.3605 7.57446 28.6408 7.73653 28.8899 7.93999C29.1559 8.14645 29.3721 8.40996 29.5227 8.71111C29.6733 9.01225 29.7543 9.34335 29.7599 9.67999Z" fill="#E0F1FA"></path><path d="M16 26.9998C16.19 24.5898 16.91 24.1998 17 24.1498C17.7869 23.6787 18.6935 23.446 19.61 23.4798H25.74C26.046 23.4798 26.349 23.4196 26.6317 23.3025C26.9144 23.1854 27.1712 23.0138 27.3876 22.7974C27.604 22.581 27.7756 22.3242 27.8927 22.0415C28.0098 21.7588 28.07 21.4558 28.07 21.1498V5.36984C28.0754 5.05966 28.0187 4.75155 27.9034 4.46357C27.788 4.17559 27.6164 3.91353 27.3984 3.69278C27.1805 3.47203 26.9206 3.29703 26.6341 3.17804C26.3476 3.05904 26.0403 2.99846 25.73 2.99984H20.05C19.5129 2.99299 18.9799 3.0944 18.4828 3.29802C17.9857 3.50164 17.5347 3.80331 17.1567 4.18502C16.7788 4.56673 16.4815 5.02066 16.2828 5.51973C16.0841 6.0188 15.9879 6.55279 16 7.08984V23.9098" stroke="#1D1D1B" stroke-width="1.4px" stroke-linecap="round" stroke-linejoin="round" fill="none"></path><path d="M15.9999 23.9102C15.9977 23.9992 16.0214 24.0869 16.068 24.1627C16.1147 24.2385 16.1824 24.2992 16.2628 24.3373C16.3433 24.3754 16.4331 24.3893 16.5213 24.3774C16.6096 24.3655 16.6924 24.3282 16.7599 24.2702" stroke="#1D1D1B" stroke-width="1.4px" stroke-linecap="round" stroke-linejoin="round" fill="none"></path><path d="M16 27C16 27.4 16.11 24.89 15.24 24.32C15.18 24.32 15.12 24.22 15.05 24.18C14.2578 23.684 13.3338 23.4399 12.4 23.48H6.26999C5.95976 23.4801 5.65263 23.4182 5.36663 23.298C5.08064 23.1778 4.82152 23.0017 4.6045 22.78C4.38747 22.5583 4.2169 22.2955 4.10279 22.007C3.98868 21.7185 3.93333 21.4102 3.93999 21.1V5.37C3.93468 5.06067 3.99102 4.75338 4.10574 4.46606C4.22045 4.17874 4.39123 3.91714 4.60813 3.69652C4.82502 3.47591 5.08367 3.30069 5.369 3.18111C5.65433 3.06152 5.96061 2.99995 6.26999 3H12C12.5329 2.99987 13.0605 3.10623 13.5518 3.31286C14.0431 3.51948 14.4881 3.82219 14.8607 4.20321C15.2334 4.58423 15.5261 5.03587 15.7217 5.53161C15.9174 6.02735 16.012 6.55719 16 7.09V23.91" stroke="#1D1D1B" stroke-width="1.4px" stroke-linecap="round" stroke-linejoin="round" fill="none"></path><path d="M28.33 5.53023C28.6886 5.49433 29.0507 5.52952 29.3957 5.63378C29.7407 5.73805 30.0617 5.90934 30.3404 6.13785C30.619 6.36636 30.8499 6.6476 31.0197 6.96546C31.1895 7.28332 31.295 7.63156 31.33 7.99023V24.5202C31.3056 25.0044 31.1375 25.4704 30.8472 25.8586C30.5569 26.2469 30.1575 26.5399 29.7 26.7002C29.2678 26.8878 28.8012 26.9831 28.33 26.9802H20.56C19.2999 26.9163 18.0485 27.2221 16.96 27.8602C16.73 27.9738 16.526 28.1337 16.3608 28.3299C16.1956 28.5261 16.0728 28.7543 16 29.0002" stroke="#1D1D1B" stroke-width="1.4px" stroke-linecap="round" stroke-linejoin="round" fill="none"></path><path d="M3.65995 5.52979C3.40787 5.53062 3.15654 5.55743 2.90995 5.60979C2.40968 5.69354 1.94296 5.91601 1.56287 6.2519C1.18279 6.58779 0.904601 7.02361 0.759955 7.50979C0.719796 7.67001 0.699643 7.8346 0.699955 7.99978V24.5198C0.773265 25.2431 1.13003 25.908 1.69222 26.369C2.25441 26.83 2.97628 27.0496 3.69995 26.9798H11.48C12.737 26.9154 13.9852 27.2214 15.07 27.8598C15.47 28.1198 15.95 28.3398 16.07 28.9598" stroke="#1D1D1B" stroke-width="1.4px" stroke-linecap="round" stroke-linejoin="round" fill="none"></path><path d="M16 24.3799V27.4799" stroke="#1D1D1B" stroke-width="1.4px" stroke-linecap="round" stroke-linejoin="round" fill="none"></path></g><defs><clipPath id="clip0_1827_65649"><rect width="32" height="32" fill="white"></rect></clipPath></defs></svg>