<svg xmlns:xlink="http://www.w3.org/1999/xlink" width="32" height="32" viewBox="0 0 32 32" fill="none" xmlns="http://www.w3.org/2000/svg"><path d="M5.66999 20.3699L3.71999 24.9999L8.71999 23.3499L1.73999 31.0999L11.52 26.2199C12.2444 25.434 12.6368 24.3983 12.6151 23.3297C12.5933 22.2611 12.1591 21.2423 11.4034 20.4865C10.6476 19.7307 9.62876 19.2965 8.56014 19.2748C7.49151 19.253 6.45589 19.6454 5.66999 20.3699Z" fill="#F9F2D7"></path><path d="M11.8499 20.1498C12.338 20.6259 12.699 21.2168 12.8999 21.8684C13.1008 22.52 13.1351 23.2115 12.9999 23.8798L12.7299 23.6198L11.9999 22.8498L11.5799 22.4298L10.4199 21.2798L9.41988 20.2798L8.30988 19.1798L8.22988 19.0998L8.12988 18.9998C8.7967 18.8699 9.48527 18.907 10.1343 19.1076C10.7833 19.3083 11.3727 19.6663 11.8499 20.1498Z" fill="#F9F2D7"></path><path d="M29.3101 2.64023L29.0901 7.00023L29.3101 9.78023L24.6701 14.0002L24.2701 15.1402C23.5701 17.1402 22.4101 20.8402 22.4601 22.8702C22.5101 24.9002 22.9401 27.0002 22.2701 29.0702C22.1435 29.4394 21.9863 29.7973 21.8001 30.1402L13.9101 22.2002L12.1401 20.4402L11.8501 20.1502L11.1601 19.4602L9.79011 18.0802L0.860107 9.00023C0.860107 9.00023 1.29011 8.67023 1.86011 8.32023C3.78338 7.77149 5.78162 7.53184 7.78011 7.61023C10.9688 7.43349 14.1404 7.02575 17.2701 6.39023L17.7501 5.91023L21.3601 2.29023L21.6401 2.57023L21.5801 2.07023H22.5801L24.0801 2.00023L28.4101 1.78023C28.5264 1.77481 28.6425 1.79305 28.7515 1.83384C28.8605 1.87463 28.9601 1.93712 29.0442 2.01752C29.1284 2.09793 29.1953 2.19458 29.241 2.30161C29.2867 2.40865 29.3102 2.52384 29.3101 2.64023Z" fill="#F9F2D7"></path><path d="M30.5101 8.84994L26.5701 12.7899L24.2801 15.0699L17.3501 21.9999C16.8996 22.4485 16.2993 22.7149 15.6645 22.7481C15.0297 22.7813 14.4049 22.579 13.9101 22.1799L12.1401 20.4199L11.8501 20.1299L11.1601 19.4399L9.79005 18.0799C9.40194 17.5849 9.20808 16.9651 9.24491 16.3371C9.28174 15.7091 9.54673 15.1162 9.99005 14.6699L18.9901 5.66994L22.5801 1.99994L23.1401 1.43994" stroke="#1D1D1B" stroke-width="1.4px" stroke-linecap="round" stroke-linejoin="round" fill="none"></path><path d="M26.5699 12.79C26.4299 13.15 24.1799 19.15 24.2499 21.96C24.2999 24.08 24.7199 26.09 24.0499 28.17C23.6663 29.1146 23.1729 30.0108 22.5799 30.84L21.8099 30.07L13.9099 22.2L12.1399 20.44" stroke="#1D1D1B" stroke-width="1.4px" stroke-linecap="round" stroke-linejoin="round" fill="none"></path><path d="M19.0001 5.58008L17.7401 5.92008C15.0905 6.68131 12.3694 7.16722 9.62011 7.37008C7.50011 7.37008 5.49011 6.89008 3.41011 7.56008C2.86504 7.75932 2.3449 8.02106 1.86011 8.34008C1.29011 8.69008 0.860107 9.02008 0.860107 9.02008L9.77011 18.0201L11.1401 19.4001" stroke="#1D1D1B" stroke-width="1.4px" stroke-linecap="round" stroke-linejoin="round" fill="none"></path><path d="M13.0001 23.88C12.8386 24.6862 12.4378 25.425 11.8501 26L11.6501 26.09L2.08008 30.86L9.00008 23.15L4.00008 24.8L6.00008 20.14C6.11951 20.0219 6.24644 19.9117 6.38008 19.81V19.81C6.88377 19.3996 7.48179 19.1213 8.12008 19V19C8.78985 18.8642 9.48281 18.8964 10.1371 19.0936C10.7915 19.2907 11.3868 19.6468 11.87 20.1301C12.3533 20.6133 12.7094 21.2086 12.9065 21.863C13.1037 22.5173 13.1359 23.2102 13.0001 23.88Z" stroke="#1D1D1B" stroke-width="1.4px" stroke-linecap="round" stroke-linejoin="round" fill="none"></path><path d="M30.7401 8.6199L27.2201 5.1099L23.3601 1.2499L30.1801 0.899903C30.2998 0.894193 30.4194 0.913563 30.5312 0.956772C30.6429 0.999981 30.7445 1.06607 30.8292 1.15081C30.9139 1.23555 30.98 1.33707 31.0232 1.44885C31.0664 1.56062 31.0858 1.6802 31.0801 1.7999L30.7401 8.6199Z" stroke="#1D1D1B" stroke-width="1.4px" stroke-linecap="round" stroke-linejoin="round" fill="none"></path></svg>