<svg xmlns:xlink="http://www.w3.org/1999/xlink" xmlns="http://www.w3.org/2000/svg" viewBox="0 0 39.38 33.045" width="48"  height="40" ><path d="M32.413 33.045l-.025-.017-11.8-7.657q1.047-1.054 2.09-2.038l3.838 2.5-1.7-4.441q1.188-1.04 2.374-1.983zM30.472 10.41c-.269.106-.542.216-.818.332a38.194 38.194 0 00-4.658 2.373H21.65l-1.888-4.927-1.884 4.926H4.17L0 10.414h15.778L19.767.004l3.985 10.41z" fill="#003057"></path><path d="M39.4 10.23c-1.724.713-12 3.714-25.746 20.038-.151.18-2.412 2.709-5.128 2.709h-2.3a2991.535 2991.535 0 014.86-12.573 2.669 2.669 0 00-.92-3.318l-.141-.094h2.888a2.137 2.137 0 012.147 1.9c0 .049.007.1.008.149a2.868 2.868 0 01-.194 1.109 790.28 790.28 0 01-2.09 5.5c.177-.206.416-.477.642-.71a51.85 51.85 0 0116.936-12.503 26.13 26.13 0 018.5-2.247 3.023 3.023 0 01.538.04z" fill="#FF8F00"></path></svg>