<svg xmlns:xlink="http://www.w3.org/1999/xlink" width="15" height="14" viewBox="0 0 15 14" fill="none" xmlns="http://www.w3.org/2000/svg">
                  <g clip-path="url(#clip0_4119_68762)" fill="none">
                  <path d="M14.4632 5.35793C14.371 5.07445 14.1195 4.87375 13.8233 4.84694L9.78193 4.48004L8.18478 0.740784C8.06686 0.466064 7.79855 0.288757 7.4999 0.288757C7.20126 0.288757 6.93284 0.466064 6.81567 0.740784L5.21851 4.48004L1.17655 4.84694C0.880257 4.87428 0.629357 5.07498 0.536645 5.35793C0.444466 5.6414 0.529595 5.95233 0.753686 6.14886L3.8086 8.82759L2.90786 12.7948C2.84196 13.0865 2.95518 13.3881 3.19721 13.5631C3.32731 13.6576 3.48016 13.7048 3.63354 13.7048C3.76534 13.7048 3.89726 13.6698 4.01507 13.5993L7.4999 11.5156L10.9841 13.5993C11.2397 13.752 11.5611 13.738 11.8026 13.5631C12.0446 13.3881 12.1578 13.0865 12.0919 12.7948L11.1912 8.82759L14.2461 6.14886C14.4701 5.95233 14.5553 5.64204 14.4632 5.35793Z" fill="#FFD662"></path>
                  </g>
                  <defs>
                  <clipPath id="clip0_4119_68762">
                  <rect width="14" height="14" fill="white" transform="translate(0.5)"></rect>
                  </clipPath>
                  </defs>
                </svg>